<svg width="14" height="14" viewBox="0 0 14 14" fill="none" xmlns="http://www.w3.org/2000/svg">
<path d="M7.00031 0C5.14449 0.00200669 3.36525 0.739926 2.05299 2.05185C0.740728 3.36377 0.00261735 5.14255 0.000610139 6.99789C-0.0728867 12.5804 6.50974 15.9954 11.0251 12.7227C11.09 12.6796 11.1456 12.6239 11.1886 12.5589C11.2316 12.4939 11.2611 12.421 11.2754 12.3444C11.2898 12.2678 11.2886 12.1891 11.272 12.113C11.2554 12.0369 11.2237 11.9648 11.1788 11.9012C11.1339 11.8375 11.0767 11.7835 11.0105 11.7423C10.9444 11.701 10.8707 11.6735 10.7937 11.6613C10.7167 11.649 10.6381 11.6523 10.5624 11.671C10.4868 11.6896 10.4156 11.7233 10.3532 11.7699C6.59199 14.495 1.1089 11.6503 1.16723 6.99789C1.48746 -0.738277 12.5143 -0.736527 12.8334 6.99789V8.1642C12.8334 8.47353 12.7105 8.77018 12.4917 8.98891C12.2729 9.20764 11.9762 9.33051 11.6668 9.33051C11.3574 9.33051 11.0606 9.20764 10.8418 8.98891C10.6231 8.77018 10.5002 8.47353 10.5002 8.1642V6.99789C10.3532 2.37403 3.64687 2.37462 3.50046 6.99789C3.50725 7.707 3.7288 8.39742 4.1359 8.97815C4.54301 9.55887 5.11657 10.0026 5.78099 10.251C6.44541 10.4993 7.1695 10.5406 7.85783 10.3693C8.54615 10.198 9.16641 9.82219 9.63686 9.29144C9.8899 9.73792 10.2831 10.0885 10.7557 10.2889C11.2282 10.4893 11.7537 10.5284 12.2507 10.4C12.7476 10.2716 13.1884 9.98292 13.5046 9.57872C13.8209 9.17452 13.995 8.67734 14 8.1642V6.99789C13.998 5.14255 13.2599 3.36377 11.9476 2.05185C10.6354 0.739926 8.85612 0.00200669 7.00031 0ZM7.00031 9.33051C6.38149 9.33051 5.78803 9.08476 5.35046 8.6473C4.9129 8.20985 4.66707 7.61654 4.66707 6.99789C4.66707 6.37923 4.9129 5.78592 5.35046 5.34847C5.78803 4.91102 6.38149 4.66526 7.00031 4.66526C7.61912 4.66526 8.21258 4.91102 8.65015 5.34847C9.08772 5.78592 9.33354 6.37923 9.33354 6.99789C9.33354 7.61654 9.08772 8.20985 8.65015 8.6473C8.21258 9.08476 7.61912 9.33051 7.00031 9.33051Z" fill="#BBBAC0" fill-opacity="0.7"/>
</svg>
