<svg width="14" height="14" viewBox="0 0 14 14" fill="none" xmlns="http://www.w3.org/2000/svg">
<path d="M7.58333 5.83333C7.58333 5.9487 7.54912 6.06149 7.48503 6.15742C7.42093 6.25334 7.32982 6.32811 7.22323 6.37226C7.11664 6.41641 6.99935 6.42797 6.8862 6.40546C6.77304 6.38295 6.6691 6.32739 6.58752 6.24581C6.50594 6.16423 6.45039 6.06029 6.42788 5.94714C6.40537 5.83398 6.41692 5.71669 6.46107 5.6101C6.50522 5.50351 6.57999 5.41241 6.67592 5.34831C6.77185 5.28421 6.88463 5.25 7 5.25C7.15471 5.25 7.30308 5.31146 7.41248 5.42085C7.52188 5.53025 7.58333 5.67862 7.58333 5.83333ZM14 7C14 8.38447 13.5895 9.73785 12.8203 10.889C12.0511 12.0401 10.9579 12.9373 9.67879 13.4672C8.3997 13.997 6.99224 14.1356 5.63437 13.8655C4.2765 13.5954 3.02922 12.9287 2.05026 11.9497C1.07129 10.9708 0.404603 9.7235 0.134506 8.36563C-0.13559 7.00776 0.003033 5.6003 0.532846 4.32122C1.06266 3.04213 1.95987 1.94888 3.11101 1.17971C4.26215 0.410543 5.61553 0 7 0C8.8559 0.0020073 10.6352 0.74015 11.9475 2.05247C13.2599 3.36479 13.998 5.1441 14 7ZM8.75 5.83333C8.75133 5.5122 8.66427 5.19689 8.49835 4.92193C8.33243 4.64698 8.09405 4.42298 7.80932 4.27447C7.52458 4.12595 7.20447 4.05865 6.88404 4.07994C6.56361 4.10122 6.25521 4.21026 5.99262 4.39513C5.73003 4.57999 5.52337 4.83355 5.39527 5.12803C5.26717 5.42252 5.22257 5.74657 5.26636 6.06471C5.31015 6.38285 5.44063 6.6828 5.64353 6.93173C5.84642 7.18065 6.1139 7.36895 6.41667 7.476V9.33333C6.41667 9.48804 6.47813 9.63642 6.58752 9.74581C6.69692 9.85521 6.84529 9.91667 7 9.91667C7.15471 9.91667 7.30308 9.85521 7.41248 9.74581C7.52188 9.63642 7.58333 9.48804 7.58333 9.33333V7.476C7.92336 7.35578 8.21795 7.13345 8.42678 6.83941C8.63562 6.54537 8.74851 6.19398 8.75 5.83333Z" fill="#BBBAC0" fill-opacity="0.4"/>
</svg>
