<svg width="236" height="156" viewBox="0 0 236 156" fill="none" xmlns="http://www.w3.org/2000/svg">
<path d="M195.729 6.90667C199.068 9.13569 203.898 13.2032 207.4 18.5729C207.597 18.8744 207.214 19.2126 206.952 18.9655C202.879 15.1272 199.013 11.2498 195.34 7.35511C195.093 7.09326 195.429 6.70685 195.729 6.90667ZM200.934 7.38765C202.882 9.64413 204.661 11.4237 206.917 13.3721C207.199 13.6156 207.606 13.2744 207.403 12.9612C205.343 9.77277 202.898 7.87932 201.335 6.89955C201.021 6.70278 200.692 7.10699 200.934 7.38765ZM195.335 11.8971C197.589 14.334 199.95 16.6897 202.407 18.971C202.655 19.2014 203.03 18.8877 202.854 18.5989C200.513 14.7672 197.797 12.6948 195.699 11.4471C195.411 11.2762 195.107 11.6515 195.335 11.8971H195.335Z" fill="#C4DAF4"/>
<path d="M215.309 119.868C218.238 128.025 221.389 141.285 220.563 155.097C220.517 155.872 219.419 155.967 219.282 155.202C217.149 143.312 215.425 131.62 214.058 120.146C213.967 119.375 215.046 119.137 215.309 119.868ZM223.72 127.39C224.198 133.806 224.998 139.178 226.407 145.456C226.584 146.241 227.727 146.171 227.779 145.368C228.301 137.191 226.494 130.766 225.042 127.059C224.75 126.314 223.66 126.592 223.72 127.39ZM208.214 128.017C208.993 135.14 210.062 142.259 211.392 149.373C211.527 150.091 212.58 150.028 212.645 149.301C213.508 139.648 211.461 132.565 209.424 127.704C209.144 127.038 208.135 127.299 208.215 128.018L208.214 128.017Z" fill="#006FF2" fill-opacity="0.61"/>
<path d="M17.3547 70.7673C14.8332 75.9465 9.987 83.6001 3.03248 89.6176C2.64201 89.9557 2.08721 89.477 2.38774 89.057C7.05465 82.5239 11.8173 76.2773 16.6419 70.3013C16.9663 69.9 17.5807 70.3029 17.3547 70.7673ZM17.6795 78.2601C14.8492 81.4652 12.6644 84.3394 10.3318 87.9234C10.0403 88.3717 10.6041 88.8838 11.0101 88.5355C15.1432 84.9887 17.3611 81.1471 18.451 78.7357C18.6699 78.251 18.0315 77.861 17.6795 78.2601ZM10.1846 71.174C7.15724 74.8506 4.2662 78.6631 1.4993 82.5979C1.21997 82.9952 1.73849 83.4671 2.11483 83.1603C7.10794 79.0907 9.52775 74.8293 10.8948 71.6043C11.0818 71.1621 10.4897 70.8034 10.1847 71.1747L10.1846 71.174Z" fill="#A9CCF4"/>
<ellipse cx="101.5" cy="45" rx="45.5" ry="45" fill="#D2E0F0"/>
<path d="M171 103C171 115.426 160.926 125.5 148.5 125.5C136.074 125.5 126 115.426 126 103C126 90.5736 136.074 80.5 148.5 80.5C160.926 80.5 171 90.5736 171 103Z" fill="#D2E0F0"/>
<circle cx="158" cy="54" r="33" fill="#D2E0F0"/>
<path d="M104.57 57.7119C102.704 57.6854 100.905 57.0093 99.484 55.8001C96.5169 53.0814 94.7194 49.3196 94.4691 45.3046C93.6865 37.2777 98.0668 32.5465 102.798 32.0187C103.938 31.8916 105.092 31.9954 106.191 32.3239C107.29 32.6524 108.312 33.1988 109.195 33.9305C110.513 35.1173 111.583 36.553 112.344 38.1549C113.105 39.7567 113.541 41.4931 113.627 43.2641C114.348 50.7406 110.361 57.7119 104.57 57.7119ZM87.4637 77.0229C85.7498 76.9837 84.1135 76.3012 82.8804 75.1111C80.1539 72.2744 78.5515 68.5446 78.3712 64.6156C77.6626 56.5886 81.6114 51.8575 85.8791 51.3296C86.9194 51.2109 87.9731 51.3204 88.9666 51.6506C89.9602 51.9808 90.8696 52.5237 91.6315 53.2414C94.0819 55.7458 95.5075 59.0747 95.6286 62.575C96.276 70.0516 92.3144 77.0229 87.4637 77.0229ZM129.28 57.7119C123.451 57.7119 119.508 50.7406 120.239 43.2544C120.326 41.4835 120.762 39.7471 121.522 38.1452C122.283 36.5434 123.353 35.1077 124.671 33.9208C125.553 33.1933 126.573 32.6502 127.669 32.3234C128.765 31.9967 129.915 31.8931 131.052 32.0187C135.783 32.5465 140.164 37.2777 139.381 45.3046C139.131 49.3204 137.333 53.0832 134.366 55.8033C132.944 57.0104 131.146 57.6852 129.28 57.7119ZM146.084 77.0229C140.009 77.0229 136.978 70.0516 137.661 62.5654C137.796 59.0426 139.272 55.7043 141.787 53.2318C142.585 52.5087 143.528 51.9641 144.553 51.6344C145.579 51.3048 146.663 51.1975 147.733 51.32C152.139 51.8478 156.22 56.579 155.492 64.6059C155.287 68.5627 153.622 72.3032 150.818 75.1046C149.529 76.3023 147.844 76.9849 146.084 77.0229ZM129.809 109.208C127.056 109.262 124.337 108.59 121.927 107.261C120.385 106.449 118.668 106.025 116.925 106.025C115.182 106.025 113.465 106.449 111.923 107.261C102.219 112.69 90.9068 106.72 91.1581 93.1153C91.1581 78.1944 105.675 64.1489 116.925 64.1489C128.176 64.1489 142.692 78.1944 142.692 93.1153C142.692 102.591 137.394 109.208 129.809 109.208Z" fill="#197DF3"/>
</svg>
