<svg width="14" height="14" viewBox="0 0 14 14" fill="none" xmlns="http://www.w3.org/2000/svg">
<path d="M14 3.64324C14 8.09851 8.09178 14 3.64166 14C2.66765 14 1.7578 13.6326 1.08707 12.962L0.503831 12.2914C-0.172727 11.6149 -0.172727 10.4719 0.532993 9.76632C0.55049 9.74883 1.9561 8.67 1.9561 8.67C2.65599 8.00521 3.75831 8.00521 4.45236 8.67L5.30389 9.35229C7.17026 8.5592 8.49422 7.22962 9.34575 5.29939L8.66919 4.44799C7.99846 3.75404 7.99846 2.64605 8.66919 1.9521C8.66919 1.9521 9.74818 0.546704 9.76568 0.52921C10.4714 -0.176403 11.6146 -0.176403 12.3203 0.52921L12.9327 1.05988C13.6326 1.75383 14 2.66354 14 3.63741V3.64324Z" fill="#BBBAC0" fill-opacity="0.4"/>
</svg>
